<svg width="498" height="214" viewBox="0 0 498 214" fill="none" xmlns="http://www.w3.org/2000/svg">
<path d="M472.658 57.5787C472.658 56.2868 473.08 55.2185 473.925 54.3738C474.769 53.4794 475.838 53.0322 477.13 53.0322C480.409 53.0322 483.043 52.262 485.03 50.7216C487.018 49.1813 488.011 46.7962 488.011 43.5664C488.011 41.082 487.117 39.0199 485.328 37.3802C483.539 35.7404 481.303 34.9206 478.62 34.9206C475.887 34.9206 473.477 35.8398 471.391 37.6783C470.198 38.7714 468.956 39.318 467.664 39.318C466.72 39.318 465.875 39.0199 465.13 38.4236C463.838 37.4298 463.192 36.2622 463.192 34.9206C463.192 33.7777 463.664 32.7342 464.608 31.7902C466.397 29.9517 468.484 28.5355 470.869 27.5418C473.304 26.4983 475.887 25.9766 478.62 25.9766C481.999 25.9766 485.08 26.7467 487.862 28.2871C490.645 29.8274 492.856 31.9641 494.496 34.697C496.136 37.3802 496.955 40.3366 496.955 43.5664C496.955 48.3366 495.589 52.1129 492.856 54.8955C490.123 57.6781 486.496 59.4172 481.974 60.1128C481.726 60.2122 481.602 60.3364 481.602 60.4855V63.2432C481.602 64.5351 481.179 65.6283 480.335 66.5227C479.49 67.3674 478.422 67.7898 477.13 67.7898C475.838 67.7898 474.769 67.3674 473.925 66.5227C473.08 65.6283 472.658 64.5351 472.658 63.2432V57.5787ZM476.757 81.1312C475.316 81.1312 474.198 80.7585 473.403 80.0132C472.658 79.2182 472.285 78.1002 472.285 76.6592V75.3922C472.285 73.9512 472.658 72.858 473.403 72.1127C474.198 71.3177 475.316 70.9201 476.757 70.9201H477.726C479.167 70.9201 480.26 71.3177 481.005 72.1127C481.8 72.858 482.198 73.9512 482.198 75.3922V76.6592C482.198 78.1002 481.8 79.2182 481.005 80.0132C480.26 80.7585 479.167 81.1312 477.726 81.1312H476.757Z" fill="#FDFFF0"/>
<path d="M456.91 61.2317C456.91 65.2068 456.015 68.7844 454.227 71.9645C452.438 75.0949 449.978 77.5297 446.848 79.2688C443.767 81.0079 440.364 81.8775 436.637 81.8775C432.86 81.8775 429.432 81.0079 426.351 79.2688C423.271 77.5297 420.836 75.0949 419.047 71.9645C417.258 68.7844 416.364 65.2068 416.364 61.2317C416.364 57.2566 417.258 53.7039 419.047 50.5735C420.836 47.3934 423.271 44.9338 426.351 43.1947C429.432 41.4059 432.86 40.5115 436.637 40.5115C440.364 40.5115 443.767 41.4059 446.848 43.1947C449.978 44.9338 452.438 47.3934 454.227 50.5735C456.015 53.7039 456.91 57.2566 456.91 61.2317ZM447.966 61.2317C447.966 58.797 447.444 56.6355 446.401 54.7473C445.407 52.8095 444.04 51.3188 442.301 50.2753C440.612 49.2319 438.724 48.7101 436.637 48.7101C434.55 48.7101 432.637 49.2319 430.898 50.2753C429.208 51.3188 427.842 52.8095 426.798 54.7473C425.805 56.6355 425.308 58.797 425.308 61.2317C425.308 63.6665 425.805 65.828 426.798 67.7161C427.842 69.6043 429.208 71.0701 430.898 72.1136C432.637 73.1571 434.55 73.6788 436.637 73.6788C438.724 73.6788 440.612 73.1571 442.301 72.1136C444.04 71.0701 445.407 69.6043 446.401 67.7161C447.444 65.828 447.966 63.6665 447.966 61.2317Z" fill="#FDFFF0"/>
<path d="M406.206 72.7092C406.901 72.7092 407.523 73.057 408.069 73.7527C408.665 74.3986 408.963 75.2682 408.963 76.3613C408.963 77.7029 408.218 78.8458 406.728 79.7899C405.287 80.6843 403.647 81.1315 401.808 81.1315C398.728 81.1315 396.119 80.4855 393.982 79.1936C391.895 77.852 390.852 75.0446 390.852 70.7713V50.2001H387.423C386.231 50.2001 385.237 49.8026 384.442 49.0076C383.647 48.2126 383.25 47.2188 383.25 46.0263C383.25 44.8834 383.647 43.9393 384.442 43.194C385.237 42.399 386.231 42.0015 387.423 42.0015H390.852V37.2313C390.852 35.9394 391.274 34.8711 392.119 34.0264C393.013 33.132 394.107 32.6848 395.398 32.6848C396.641 32.6848 397.684 33.132 398.529 34.0264C399.374 34.8711 399.796 35.9394 399.796 37.2313V42.0015H405.088C406.28 42.0015 407.274 42.399 408.069 43.194C408.864 43.989 409.262 44.9828 409.262 46.1753C409.262 47.3182 408.864 48.2871 408.069 49.0821C407.274 49.8275 406.28 50.2001 405.088 50.2001H399.796V70.3987C399.796 71.4421 400.069 72.2123 400.616 72.7092C401.162 73.1564 401.908 73.38 402.852 73.38C403.249 73.38 403.796 73.2806 404.492 73.0819C405.088 72.8334 405.659 72.7092 406.206 72.7092Z" fill="#FDFFF0"/>
<path d="M359.696 40.5115C363.124 40.5115 366.23 41.4059 369.012 43.1947C371.795 44.9338 373.981 47.3685 375.571 50.4989C377.211 53.6293 378.031 57.1821 378.031 61.1572C378.031 65.1323 377.236 68.7099 375.646 71.89C374.056 75.0204 371.869 77.48 369.087 79.2688C366.354 81.0079 363.323 81.8775 359.994 81.8775C357.609 81.8775 355.348 81.4054 353.211 80.4613C351.124 79.4675 349.385 78.275 347.994 76.8837V91.4923C347.994 92.7842 347.571 93.8525 346.727 94.6972C345.882 95.5916 344.814 96.0388 343.522 96.0388C342.23 96.0388 341.162 95.6164 340.317 94.7717C339.472 93.927 339.05 92.8339 339.05 91.4923V45.8033C339.05 44.5114 339.472 43.4431 340.317 42.5984C341.162 41.704 342.23 41.2568 343.522 41.2568C344.814 41.2568 345.882 41.704 346.727 42.5984C347.571 43.4431 347.994 44.5114 347.994 45.8033V46.1015C349.186 44.6108 350.851 43.3189 352.988 42.2257C355.124 41.0829 357.36 40.5115 359.696 40.5115ZM358.578 73.6788C361.758 73.6788 364.366 72.4863 366.404 70.1012C368.441 67.7161 369.459 64.7348 369.459 61.1572C369.459 57.5796 368.441 54.6231 366.404 52.2877C364.416 49.9027 361.807 48.7101 358.578 48.7101C355.348 48.7101 352.714 49.9027 350.677 52.2877C348.64 54.6231 347.621 57.5796 347.621 61.1572C347.621 64.7348 348.64 67.7161 350.677 70.1012C352.714 72.4863 355.348 73.6788 358.578 73.6788Z" fill="#FDFFF0"/>
<path d="M323.403 41.2561C324.695 41.2561 325.763 41.7033 326.608 42.5977C327.453 43.4424 327.875 44.5107 327.875 45.8026V77.4793C327.875 83.9388 326.136 88.6344 322.658 91.5661C319.18 94.5474 314.534 96.0381 308.72 96.0381C307.031 96.0381 305.292 95.889 303.503 95.5909C301.764 95.3424 300.348 94.9946 299.254 94.5474C296.82 93.5039 295.602 92.063 295.602 90.2245C295.602 89.8767 295.677 89.4792 295.826 89.032C296.124 87.9388 296.621 87.0941 297.317 86.4978C298.062 85.9512 298.857 85.678 299.702 85.678C300.198 85.678 300.671 85.7525 301.118 85.9016C301.466 86.0506 302.062 86.2991 302.907 86.6469C303.801 86.9947 304.72 87.268 305.664 87.4668C306.658 87.7152 307.677 87.8394 308.72 87.8394C312.248 87.8394 314.832 87.0692 316.472 85.5289C318.161 84.0382 319.006 81.4544 319.006 77.7774V77.0321C316.422 80.2619 312.397 81.8768 306.931 81.8768C304.348 81.8768 302.062 81.2805 300.074 80.088C298.087 78.8457 296.546 77.1563 295.453 75.0197C294.36 72.8334 293.813 70.3489 293.813 67.5664V45.8026C293.813 44.5107 294.236 43.4424 295.081 42.5977C295.925 41.7033 296.994 41.2561 298.285 41.2561C299.577 41.2561 300.646 41.7033 301.49 42.5977C302.335 43.4424 302.757 44.5107 302.757 45.8026V64.8832C302.757 68.0136 303.428 70.2744 304.77 71.6657C306.161 73.0073 308.174 73.6781 310.807 73.6781C313.391 73.6781 315.378 72.9328 316.77 71.4421C318.211 69.9017 318.931 67.7154 318.931 64.8832V45.8026C318.931 44.5107 319.354 43.4424 320.198 42.5977C321.043 41.7033 322.111 41.2561 323.403 41.2561Z" fill="#FDFFF0"/>
<path d="M280.726 40.5115C282.217 40.5115 283.459 40.9338 284.453 41.7785C285.496 42.6232 286.018 43.617 286.018 44.7599C286.018 46.3002 285.62 47.4679 284.825 48.2629C284.03 49.0083 283.086 49.3809 281.993 49.3809C281.248 49.3809 280.403 49.207 279.459 48.8592C279.31 48.8095 278.962 48.7101 278.416 48.5611C277.919 48.412 277.372 48.3375 276.776 48.3375C275.484 48.3375 274.242 48.735 273.049 49.53C271.857 50.325 270.863 51.5424 270.068 53.1821C269.323 54.7722 268.95 56.6852 268.95 58.9212V76.5856C268.95 77.8775 268.527 78.9707 267.683 79.8651C266.838 80.7098 265.77 81.1321 264.478 81.1321C263.186 81.1321 262.118 80.7098 261.273 79.8651C260.428 78.9707 260.006 77.8775 260.006 76.5856V45.8033C260.006 44.5114 260.428 43.4431 261.273 42.5984C262.118 41.704 263.186 41.2568 264.478 41.2568C265.77 41.2568 266.838 41.704 267.683 42.5984C268.527 43.4431 268.95 44.5114 268.95 45.8033V46.7723C270.093 44.735 271.732 43.1947 273.869 42.1512C276.006 41.0581 278.291 40.5115 280.726 40.5115Z" fill="#FDFFF0"/>
<path d="M237.523 40.5115C241.747 40.5115 245.15 41.1823 247.734 42.5239C250.318 43.8158 251.61 45.5549 251.61 47.7412C251.61 48.8344 251.287 49.8033 250.641 50.648C249.995 51.443 249.15 51.8405 248.107 51.8405C247.312 51.8405 246.666 51.7412 246.169 51.5424C245.672 51.294 245.175 50.9958 244.678 50.648C244.231 50.2505 243.784 49.9275 243.337 49.6791C242.84 49.4306 242.095 49.207 241.101 49.0083C240.157 48.8095 239.386 48.7101 238.79 48.7101C235.064 48.7101 232.132 49.8778 229.995 52.2132C227.908 54.4989 226.865 57.5051 226.865 61.2317C226.865 64.8093 227.933 67.7907 230.07 70.1757C232.206 72.5111 234.939 73.6788 238.268 73.6788C240.703 73.6788 242.517 73.3807 243.709 72.7844C244.008 72.6353 244.405 72.3869 244.902 72.0391C245.449 71.6416 245.945 71.3434 246.393 71.1447C246.84 70.9459 247.386 70.8465 248.032 70.8465C249.275 70.8465 250.244 71.244 250.939 72.0391C251.684 72.8341 252.057 73.8527 252.057 75.0949C252.057 76.2875 251.362 77.4055 249.97 78.4489C248.579 79.4924 246.74 80.3371 244.455 80.9831C242.169 81.5793 239.734 81.8775 237.15 81.8775C233.324 81.8775 229.946 80.9831 227.014 79.1943C224.132 77.4055 221.896 74.9459 220.306 71.8155C218.716 68.6354 217.921 65.1075 217.921 61.2317C217.921 57.2069 218.741 53.6293 220.38 50.4989C222.07 47.3685 224.405 44.9338 227.387 43.1947C230.368 41.4059 233.747 40.5115 237.523 40.5115Z" fill="#FDFFF0"/>
<path d="M192.171 70.2302C193.269 70.2302 194.249 70.7792 195.112 71.8772C196.053 72.8967 196.523 74.2692 196.523 75.9946C196.523 78.1121 195.347 79.9159 192.994 81.406C190.72 82.8177 188.132 83.5235 185.23 83.5235C180.367 83.5235 176.25 82.504 172.878 80.4649C169.584 78.3474 167.937 73.9163 167.937 67.1716V34.703H162.525C160.643 34.703 159.075 34.0756 157.82 32.8207C156.565 31.5659 155.938 29.9974 155.938 28.1152C155.938 26.3113 156.565 24.8212 157.82 23.6448C159.075 22.39 160.643 21.7626 162.525 21.7626H167.937V14.2336C167.937 12.1946 168.603 10.5084 169.937 9.17513C171.348 7.76345 173.074 7.05762 175.113 7.05762C177.073 7.05762 178.72 7.76345 180.054 9.17513C181.387 10.5084 182.054 12.1946 182.054 14.2336V21.7626H190.406C192.288 21.7626 193.857 22.39 195.112 23.6448C196.366 24.8997 196.994 26.4682 196.994 28.3504C196.994 30.1542 196.366 31.6836 195.112 32.9384C193.857 34.1148 192.288 34.703 190.406 34.703H182.054V66.5834C182.054 68.2304 182.485 69.446 183.348 70.2302C184.21 70.9361 185.387 71.289 186.877 71.289C187.504 71.289 188.367 71.1321 189.465 70.8184C190.406 70.4263 191.308 70.2302 192.171 70.2302Z" fill="#00F6BB"/>
<path d="M147.671 52.1148C147.671 58.3889 146.259 64.0356 143.436 69.0549C140.613 73.9958 136.73 77.8387 131.79 80.5836C126.927 83.3285 121.555 84.701 115.673 84.701C109.712 84.701 104.301 83.3285 99.4385 80.5836C94.5761 77.8387 90.7332 73.9958 87.9098 69.0549C85.0865 64.0356 83.6748 58.3889 83.6748 52.1148C83.6748 45.8406 85.0865 40.2331 87.9098 35.2923C90.7332 30.273 94.5761 26.3909 99.4385 23.6459C104.301 20.8226 109.712 19.4109 115.673 19.4109C121.555 19.4109 126.927 20.8226 131.79 23.6459C136.73 26.3909 140.613 30.273 143.436 35.2923C146.259 40.2331 147.671 45.8406 147.671 52.1148ZM133.554 52.1148C133.554 48.2719 132.731 44.8603 131.084 41.8801C129.515 38.8215 127.358 36.4687 124.613 34.8217C121.947 33.1747 118.967 32.3513 115.673 32.3513C112.379 32.3513 109.36 33.1747 106.615 34.8217C103.948 36.4687 101.791 38.8215 100.144 41.8801C98.5759 44.8603 97.7916 48.2719 97.7916 52.1148C97.7916 55.9577 98.5759 59.3692 100.144 62.3494C101.791 65.3296 103.948 67.6432 106.615 69.2902C109.36 70.9371 112.379 71.7606 115.673 71.7606C118.967 71.7606 121.947 70.9371 124.613 69.2902C127.358 67.6432 129.515 65.3296 131.084 62.3494C132.731 59.3692 133.554 55.9577 133.554 52.1148Z" fill="#00F6BB"/>
<path d="M64.8196 39.0564C66.8587 39.0564 68.5448 39.7623 69.8781 41.174C71.2113 42.5072 71.878 44.1934 71.878 46.2325V71.1721C71.878 73.917 70.6623 76.0346 68.2311 77.5247C60.5453 82.3087 52.1145 84.7007 42.9386 84.7007C35.1743 84.7007 27.9983 82.8185 21.4105 79.054C14.8226 75.2111 9.60726 70.0742 5.76435 63.6432C1.92145 57.1338 0 50.0362 0 42.3504C0 34.6645 1.92145 27.6062 5.76435 21.1752C9.60726 14.6658 14.8226 9.52883 21.4105 5.76436C27.9983 1.92145 35.1743 0 42.9386 0C50.7028 0 57.4475 1.56853 63.1726 4.7056C64.349 5.33301 65.2117 6.15648 65.7607 7.17603C66.3881 8.19558 66.7018 9.29355 66.7018 10.4699C66.7018 12.4306 66.0352 14.156 64.7019 15.6461C63.4471 17.0578 61.8786 17.7636 59.9963 17.7636C58.8199 17.7636 57.5259 17.4499 56.1142 16.8225C51.8792 15.0187 47.4873 14.1168 42.9386 14.1168C37.9193 14.1168 33.2921 15.4108 29.057 17.9989C24.822 20.5085 21.4497 23.9201 18.94 28.2336C16.5088 32.547 15.2932 37.2526 15.2932 42.3504C15.2932 47.4481 16.5088 52.1537 18.94 56.4671C21.4497 60.7806 24.822 64.2314 29.057 66.8194C33.2921 69.3291 37.9193 70.5839 42.9386 70.5839C45.1345 70.5839 47.4873 70.3879 49.9969 69.9957C52.5066 69.6036 54.7025 69.0938 56.5848 68.4664V53.1732H45.5266C43.4875 53.1732 41.7621 52.5066 40.3505 51.1733C39.0172 49.8401 38.3506 48.1539 38.3506 46.1148C38.3506 44.0757 39.0172 42.3896 40.3505 41.0563C41.7621 39.7231 43.4875 39.0564 45.5266 39.0564H64.8196Z" fill="#00F6BB"/>
<path d="M491.641 136.039C493.478 136.039 494.997 136.675 496.198 137.947C497.399 139.148 498 140.667 498 142.504V187.543C498 196.727 495.527 203.403 490.582 207.572C485.636 211.811 479.031 213.93 470.765 213.93C468.363 213.93 465.89 213.718 463.346 213.294C460.874 212.941 458.86 212.446 457.306 211.811C453.844 210.327 452.113 208.278 452.113 205.664C452.113 205.17 452.219 204.604 452.431 203.969C452.855 202.414 453.562 201.213 454.551 200.365C455.61 199.588 456.741 199.2 457.942 199.2C458.648 199.2 459.319 199.306 459.955 199.518C460.45 199.73 461.298 200.083 462.499 200.577C463.77 201.072 465.077 201.46 466.42 201.743C467.833 202.096 469.281 202.273 470.765 202.273C475.781 202.273 479.454 201.178 481.786 198.988C484.188 196.868 485.389 193.195 485.389 187.966V186.907C481.715 191.499 475.993 193.795 468.221 193.795C464.547 193.795 461.298 192.947 458.472 191.252C455.646 189.485 453.456 187.083 451.901 184.045C450.347 180.937 449.57 177.404 449.57 173.448V142.504C449.57 140.667 450.17 139.148 451.371 137.947C452.572 136.675 454.091 136.039 455.928 136.039C457.765 136.039 459.284 136.675 460.485 137.947C461.686 139.148 462.287 140.667 462.287 142.504V169.633C462.287 174.084 463.24 177.298 465.148 179.277C467.126 181.184 469.987 182.138 473.732 182.138C477.406 182.138 480.232 181.078 482.21 178.959C484.259 176.769 485.283 173.66 485.283 169.633V142.504C485.283 140.667 485.884 139.148 487.085 137.947C488.286 136.675 489.805 136.039 491.641 136.039Z" fill="#F9CF2D"/>
<path d="M428.553 134.979C430.39 134.979 431.909 135.58 433.11 136.781C434.311 137.982 434.911 139.536 434.911 141.444V186.271C434.911 188.108 434.311 189.662 433.11 190.934C431.909 192.135 430.39 192.735 428.553 192.735C426.716 192.735 425.197 192.135 423.996 190.934C422.865 189.733 422.265 188.214 422.194 186.377C420.428 188.426 418.026 190.192 414.988 191.675C412.021 193.088 408.877 193.795 405.556 193.795C400.682 193.795 396.266 192.559 392.31 190.086C388.353 187.543 385.209 184.045 382.878 179.594C380.617 175.144 379.487 170.092 379.487 164.44C379.487 158.788 380.617 153.737 382.878 149.286C385.139 144.764 388.212 141.267 392.098 138.795C396.054 136.251 400.399 134.979 405.133 134.979C408.524 134.979 411.703 135.615 414.67 136.887C417.637 138.088 420.145 139.642 422.194 141.55V141.444C422.194 139.607 422.795 138.088 423.996 136.887C425.197 135.615 426.716 134.979 428.553 134.979ZM407.146 182.138C411.738 182.138 415.483 180.478 418.379 177.157C421.276 173.766 422.724 169.527 422.724 164.44C422.724 159.353 421.276 155.115 418.379 151.723C415.483 148.332 411.738 146.637 407.146 146.637C402.624 146.637 398.915 148.332 396.019 151.723C393.122 155.115 391.674 159.353 391.674 164.44C391.674 169.527 393.087 173.766 395.913 177.157C398.809 180.478 402.554 182.138 407.146 182.138Z" fill="#F9CF2D"/>
<path d="M365.759 186.271C365.759 188.108 365.123 189.662 363.852 190.934C362.651 192.135 361.132 192.736 359.295 192.736C357.529 192.736 356.045 192.135 354.844 190.934C353.643 189.662 353.042 188.108 353.042 186.271V120.779C353.042 118.942 353.643 117.424 354.844 116.222C356.116 114.951 357.67 114.315 359.507 114.315C361.273 114.315 362.757 114.951 363.958 116.222C365.159 117.424 365.759 118.942 365.759 120.779V186.271Z" fill="#F9CF2D"/>
<path d="M317.698 118.554C321.301 118.554 324.727 119.65 327.977 121.84C331.227 123.959 333.841 126.856 335.819 130.529C337.797 134.133 338.787 138.089 338.787 142.399C338.787 146.638 337.797 150.594 335.819 154.268C333.841 157.941 331.227 160.873 327.977 163.063C324.727 165.183 321.301 166.243 317.698 166.243H299.258V186.272C299.258 188.179 298.693 189.734 297.563 190.935C296.432 192.136 294.949 192.736 293.112 192.736C291.346 192.736 289.897 192.136 288.767 190.935C287.636 189.663 287.071 188.109 287.071 186.272V125.019C287.071 123.182 287.672 121.663 288.873 120.462C290.145 119.19 291.699 118.554 293.536 118.554H317.698ZM317.698 154.162C319.04 154.162 320.347 153.596 321.619 152.466C322.961 151.336 324.021 149.887 324.798 148.121C325.646 146.284 326.07 144.377 326.07 142.399C326.07 140.42 325.646 138.548 324.798 136.782C324.021 134.945 322.961 133.497 321.619 132.437C320.347 131.307 319.04 130.741 317.698 130.741H299.258V154.162H317.698Z" fill="#F9CF2D"/>
<path d="M197.663 183.939C197.027 183.092 196.709 182.032 196.709 180.76C196.709 178.923 197.627 177.369 199.464 176.097C200.453 175.462 201.478 175.144 202.538 175.144C204.021 175.144 205.434 175.815 206.777 177.157C208.896 179.347 211.086 180.972 213.347 182.032C215.678 183.092 218.469 183.621 221.719 183.621C227.229 183.41 229.985 181.325 229.985 177.369C229.985 175.32 229.031 173.766 227.123 172.706C225.287 171.646 222.39 170.587 218.434 169.527C214.336 168.397 210.98 167.266 208.366 166.136C205.823 165.005 203.597 163.31 201.69 161.049C199.853 158.718 198.934 155.609 198.934 151.723C198.934 148.332 199.888 145.4 201.796 142.928C203.774 140.384 206.317 138.441 209.426 137.099C212.605 135.686 215.961 134.979 219.493 134.979C223.096 134.979 226.7 135.651 230.303 136.993C233.906 138.335 236.732 140.314 238.781 142.928C239.699 144.058 240.158 145.33 240.158 146.743C240.158 148.368 239.487 149.71 238.145 150.77C237.156 151.547 236.025 151.935 234.754 151.935C233.199 151.935 231.928 151.441 230.939 150.452C229.667 148.897 228.007 147.661 225.958 146.743C223.98 145.824 221.719 145.365 219.175 145.365C213.806 145.365 211.121 147.308 211.121 151.193C211.121 152.748 211.616 154.019 212.605 155.009C213.594 155.927 214.831 156.669 216.314 157.234C217.868 157.729 220.023 158.364 222.779 159.142C226.594 160.201 229.773 161.296 232.316 162.427C234.86 163.557 237.014 165.288 238.781 167.619C240.547 169.951 241.43 173.024 241.43 176.839C241.43 180.301 240.406 183.339 238.357 185.953C236.308 188.496 233.659 190.439 230.409 191.781C227.229 193.124 223.944 193.795 220.553 193.795C215.89 193.795 211.545 193.018 207.518 191.464C203.491 189.909 200.206 187.401 197.663 183.939Z" fill="#F9CF2D"/>
<path d="M185.746 129.257C185.746 130.882 185.145 132.931 183.944 135.404C182.743 137.876 181.189 140.031 179.281 141.868C177.374 143.705 175.396 144.623 173.347 144.623C171.793 144.623 170.556 144.305 169.638 143.67C168.719 142.963 168.26 141.868 168.26 140.384C168.26 139.254 168.543 138.477 169.108 138.053C169.673 137.558 170.274 137.205 170.91 136.993C171.616 136.781 172.111 136.605 172.393 136.463C174.371 135.404 175.36 133.991 175.36 132.224C175.36 131.447 174.972 130.776 174.195 130.211C173.488 129.575 172.534 129.257 171.333 129.257C170.132 129.257 169.143 129.504 168.366 129.999C167.518 129.646 166.847 129.187 166.353 128.621C165.929 128.056 165.717 127.208 165.717 126.078C165.717 124.665 166.247 123.358 167.306 122.157C168.366 120.885 169.673 119.896 171.227 119.19C172.782 118.412 174.301 118.024 175.784 118.024C178.893 118.024 181.33 119.013 183.097 120.991C184.863 122.899 185.746 125.654 185.746 129.257Z" fill="#F9CF2D"/>
<path d="M151.5 180.76C152.489 180.76 153.372 181.255 154.15 182.244C154.997 183.162 155.421 184.399 155.421 185.953C155.421 187.861 154.362 189.485 152.242 190.828C150.193 192.099 147.862 192.735 145.248 192.735C140.868 192.735 137.159 191.817 134.121 189.98C131.153 188.072 129.67 184.081 129.67 178.005V148.756H124.795C123.099 148.756 121.686 148.191 120.556 147.061C119.426 145.93 118.86 144.517 118.86 142.822C118.86 141.197 119.426 139.854 120.556 138.795C121.686 137.664 123.099 137.099 124.795 137.099H129.67V130.317C129.67 128.48 130.27 126.961 131.471 125.76C132.743 124.488 134.297 123.852 136.134 123.852C137.9 123.852 139.384 124.488 140.585 125.76C141.786 126.961 142.387 128.48 142.387 130.317V137.099H149.911C151.606 137.099 153.019 137.664 154.15 138.795C155.28 139.925 155.845 141.338 155.845 143.034C155.845 144.658 155.28 146.036 154.15 147.167C153.019 148.226 151.606 148.756 149.911 148.756H142.387V177.475C142.387 178.959 142.775 180.054 143.552 180.76C144.329 181.396 145.389 181.714 146.731 181.714C147.297 181.714 148.074 181.573 149.063 181.29C149.911 180.937 150.723 180.76 151.5 180.76Z" fill="#F9CF2D"/>
<path d="M111.435 163.063C111.365 164.758 110.694 166.136 109.422 167.196C108.15 168.255 106.667 168.785 104.971 168.785H69.9996C70.8474 172.953 72.7902 176.239 75.8281 178.641C78.866 180.972 82.2925 182.138 86.1076 182.138C89.0042 182.138 91.265 181.891 92.8899 181.396C94.5148 180.831 95.7865 180.266 96.705 179.7C97.694 179.065 98.3652 178.641 98.7185 178.429C99.9902 177.793 101.191 177.475 102.322 177.475C103.805 177.475 105.077 178.005 106.137 179.065C107.196 180.124 107.726 181.361 107.726 182.774C107.726 184.681 106.737 186.412 104.759 187.966C102.781 189.591 100.131 190.969 96.8109 192.099C93.4904 193.23 90.1346 193.795 86.7434 193.795C80.8089 193.795 75.6162 192.559 71.1653 190.086C66.785 187.613 63.3939 184.222 60.9918 179.912C58.5897 175.532 57.3887 170.622 57.3887 165.182C57.3887 159.106 58.6604 153.772 61.2037 149.18C63.7471 144.588 67.1029 141.091 71.2712 138.689C75.4396 136.216 79.8905 134.979 84.624 134.979C89.2868 134.979 93.6671 136.251 97.7647 138.795C101.933 141.338 105.254 144.764 107.726 149.074C110.199 153.384 111.435 158.046 111.435 163.063ZM84.624 146.637C76.4286 146.637 71.5892 150.487 70.1055 158.188H97.8707V157.446C97.5881 154.479 96.1398 151.935 93.5257 149.816C90.9117 147.696 87.9445 146.637 84.624 146.637Z" fill="#F9CF2D"/>
<path d="M40.9059 180.337C42.7428 180.337 44.2617 180.938 45.4628 182.139C46.7345 183.269 47.3703 184.753 47.3703 186.59C47.3703 188.356 46.7345 189.84 45.4628 191.041C44.2617 192.171 42.7428 192.736 40.9059 192.736H6.4644C4.62752 192.736 3.07324 192.136 1.80155 190.935C0.600518 189.663 0 188.109 0 186.272V125.019C0 123.182 0.635843 121.663 1.90753 120.462C3.17921 119.19 4.80415 118.554 6.78233 118.554C8.54856 118.554 10.0675 119.19 11.3392 120.462C12.6109 121.663 13.2467 123.182 13.2467 125.019V180.337H40.9059Z" fill="#F9CF2D"/>
</svg>
