<svg width="101" height="40" viewBox="0 0 101 40" fill="none" xmlns="http://www.w3.org/2000/svg">
<path d="M88.2986 12.7721C87.7419 12.1765 86.7994 12.1393 86.1984 12.6943C85.5974 13.2458 85.5598 14.1798 86.1199 14.7754C86.6765 15.3709 87.619 15.4082 88.22 14.8532C88.821 14.3016 88.8586 13.3677 88.2986 12.7721Z" fill="#00F6BB"/>
<path d="M11.1905 29.3324V37.7042C11.1905 38.6686 10.4154 39.4537 9.45237 39.4537H1.73817C0.778591 39.4537 0 38.6686 0 37.7042V2.29159C0 1.3238 0.775177 0.542114 1.73817 0.542114H9.45579C10.4154 0.542114 11.194 1.3238 11.194 2.29159V14.5887C11.194 15.4245 12.3345 15.6614 12.6624 14.8933L18.372 1.59789C18.6486 0.954951 19.2736 0.542114 19.9668 0.542114H28.183C29.4328 0.542114 30.2729 1.83138 29.7743 2.98868L21.8245 21.4276C21.6025 21.9453 21.6401 22.5375 21.9269 23.018L30.1226 36.8007C30.8158 37.9648 29.9792 39.4435 28.6303 39.4435H20.1102C19.4989 39.4435 18.9321 39.1187 18.6179 38.5942L12.8399 28.8688C12.3755 28.0871 11.1871 28.4188 11.1871 29.3256L11.1905 29.3324Z" fill="#00F6BB"/>
<path d="M56.9125 37.3357L55.3689 14.0612C54.8533 6.2647 50.3149 2.42396 42.3548 3.0669C34.7909 3.676 31.2224 7.54043 30.9936 15.3945C30.9697 16.2337 31.6082 16.9105 32.3663 16.8529L39.7937 16.254C40.4391 16.1999 40.9411 15.6246 40.9787 14.9173C41.0811 13.0291 41.6138 12.4776 43.0651 12.3591C44.4721 12.2474 45.2268 13.0156 45.3395 14.7211L45.4521 16.4435C45.5102 17.303 44.8614 18.0102 44.0828 17.9493C43.113 17.8749 42.1397 17.885 41.0845 17.9696C34.1079 18.5314 30.5838 22.1386 31.0004 28.4361C31.3897 34.3241 35.73 38.0227 41.7197 37.5388C43.5774 37.3899 45.056 37.0684 46.282 36.4965C46.521 36.3883 46.7839 36.5642 46.8044 36.8485L46.8898 38.1479C46.941 38.9228 47.5557 39.5082 48.2558 39.4541L55.7207 38.8517C56.4241 38.7942 56.9534 38.1174 56.9022 37.3425H56.909L56.9125 37.3357ZM43.2427 30.2803C40.7669 30.4766 39.7254 29.8099 39.6059 27.9623C39.4829 26.1181 40.422 25.2214 42.8944 25.0183C45.3087 24.8254 46.3571 25.5631 46.4766 27.404C46.5927 29.1771 45.657 30.0806 43.2427 30.2735V30.2769V30.2803Z" fill="#00F6BB"/>
<path d="M88.6399 0.640669C80.9906 -0.134246 75.4824 3.76063 74.6628 11.4184L74.434 13.5537C73.6144 21.2081 78.1767 26.1283 85.826 26.9032C93.4753 27.6781 98.9391 23.7798 99.7587 16.1221L99.9875 13.9868C100.807 6.3324 96.2892 1.41897 88.6433 0.644053L88.6399 0.640669ZM92.765 15.337L88.3599 19.3841C87.5779 20.1049 86.3553 20.0575 85.6314 19.2826L81.5472 14.9174C80.8198 14.1425 80.8676 12.931 81.6496 12.2136L86.0548 8.16648C86.8368 7.44571 88.0593 7.49308 88.7833 8.268L92.8675 12.6332C93.5949 13.4082 93.5471 14.6196 92.765 15.337Z" fill="#00F6BB"/>
<path d="M71.4562 27.6269V2.27806C71.4562 1.31703 70.6707 0.542114 69.7043 0.542114H62.014C61.0476 0.542114 60.2622 1.31703 60.2622 2.27806V37.7143C60.2622 38.672 61.0442 39.4503 62.014 39.4503H85.4435C86.4099 39.4503 87.1953 38.6754 87.1953 37.7143V31.0954C87.1953 30.1378 86.4133 29.3595 85.4435 29.3595H73.2046C72.2382 29.3595 71.4528 28.5846 71.4528 27.6235L71.4562 27.6269Z" fill="#00F6BB"/>
</svg>
