<svg width="101" height="40" viewBox="0 0 101 40" fill="none" xmlns="http://www.w3.org/2000/svg">
<path d="M89.2156 12.7721C88.6589 12.1765 87.7164 12.1393 87.1154 12.6943C86.5144 13.2458 86.4768 14.1798 87.0369 14.7754C87.5935 15.3709 88.536 15.4082 89.137 14.8532C89.738 14.3016 89.7756 13.3677 89.2156 12.7721Z" fill="#F9CF2D"/>
<path d="M12.1075 29.3324V37.7042C12.1075 38.6686 11.3324 39.4537 10.3694 39.4537H2.65174C1.69216 39.4537 0.913574 38.672 0.913574 37.7042V2.29159C0.913574 1.3238 1.69216 0.542114 2.65174 0.542114H10.3694C11.3289 0.542114 12.1075 1.3238 12.1075 2.29159V14.5887C12.1075 15.4245 13.2481 15.6614 13.5759 14.8933L19.2856 1.59789C19.5622 0.954951 20.1905 0.542114 20.8803 0.542114H29.0965C30.3464 0.542114 31.1864 1.828 30.6879 2.9853L22.738 21.4242C22.5161 21.942 22.5536 22.5341 22.8405 23.0147L31.0362 36.7973C31.7294 37.9614 30.8928 39.4401 29.5439 39.4401H21.0238C20.4125 39.4401 19.8456 39.1153 19.5315 38.5908L13.7535 28.862C13.2891 28.0804 12.1007 28.412 12.1007 29.3223L12.1075 29.3324Z" fill="#F9CF2D"/>
<path d="M57.8295 37.3357L56.2894 14.0612C55.7737 6.2647 51.2353 2.42396 43.2753 3.0669C35.7113 3.676 32.1428 7.54043 31.914 15.3945C31.8901 16.2337 32.5286 16.9105 33.2868 16.8529L40.7141 16.254C41.3595 16.1999 41.8615 15.6246 41.8991 14.9173C42.0015 13.0291 42.5342 12.4776 43.9856 12.3591C45.3925 12.2474 46.1472 13.0156 46.2599 14.7211L46.3726 16.4435C46.4306 17.303 45.7818 18.0102 45.0032 17.9493C44.0334 17.8749 43.0601 17.885 42.0049 17.9696C35.0283 18.5314 31.5042 22.1386 31.9208 28.4361C32.3101 34.3241 36.6504 38.0227 42.6401 37.5388C44.4978 37.3899 45.9764 37.0684 47.2024 36.4965C47.4414 36.3883 47.7044 36.5642 47.7248 36.8485L47.8102 38.1479C47.8614 38.9228 48.4761 39.5082 49.1762 39.4541L56.6411 38.8517C57.3445 38.7942 57.8739 38.1174 57.8226 37.3425H57.8295V37.3357ZM44.1597 30.2803C41.6839 30.4766 40.6424 29.8099 40.5195 27.9623C40.3999 26.1181 41.3356 25.2214 43.808 25.0183C46.2223 24.8254 47.2672 25.5631 47.3902 27.404C47.5063 29.1771 46.5706 30.0806 44.1563 30.2735V30.2769L44.1597 30.2803Z" fill="#F9CF2D"/>
<path d="M89.5569 0.640669C81.9076 -0.134246 76.3994 3.76063 75.5798 11.4184L75.351 13.5537C74.5314 21.2114 79.0937 26.1283 86.743 26.9032C94.3923 27.6781 99.8561 23.7798 100.676 16.1221L100.905 13.9868C101.724 6.32902 97.2062 1.41897 89.5603 0.644053L89.5569 0.640669ZM93.6786 15.3336L89.2734 19.3808C88.4914 20.1015 87.2689 20.0542 86.545 19.2792L82.4608 14.914C81.7334 14.1391 81.7812 12.9276 82.5632 12.2103L86.9684 8.1631C87.7504 7.44233 88.9729 7.4897 89.6969 8.26461L93.7811 12.6299C94.5085 13.4048 94.4606 14.6162 93.6786 15.3336Z" fill="#F9CF2D"/>
<path d="M72.3697 27.6269V2.27806C72.3697 1.32041 71.5877 0.542114 70.6179 0.542114H62.9276C61.9612 0.542114 61.1758 1.31703 61.1758 2.27806V37.7143C61.1758 38.672 61.9578 39.4503 62.9276 39.4503H86.3571C87.3235 39.4503 88.1089 38.6754 88.1089 37.7143V31.0954C88.1089 30.1378 87.3269 29.3595 86.3571 29.3595H74.1182C73.1517 29.3595 72.3663 28.5846 72.3663 27.6235L72.3697 27.6269Z" fill="#F9CF2D"/>
</svg>
