<svg width="42" height="42" viewBox="0 0 42 42" fill="none" xmlns="http://www.w3.org/2000/svg">
<path d="M21.9111 39.7944V27.2422C21.9111 25.1624 23.596 22.5047 25.6743 21.3046L38.2265 14.0588C40.3064 12.8588 41.9897 13.5708 41.9897 15.6491V28.2013C41.9897 30.2812 40.3048 32.9389 38.2265 34.1389L25.6743 41.3848C23.5945 42.5848 21.9111 41.8727 21.9111 39.7944Z" fill="#001932"/>
<path d="M37.0554 7.94729L24.6268 0.878302C22.5683 -0.292747 19.2305 -0.292747 17.172 0.878302L4.74333 7.94729C2.68484 9.11834 2.68484 11.0167 4.74333 12.1878L17.172 19.2568C19.2305 20.4278 22.5683 20.4278 24.6268 19.2568L37.0554 12.1878C39.1139 11.0167 39.1139 9.11834 37.0554 7.94729ZM20.9001 11.4421C19.4028 11.4421 18.189 10.6691 18.189 9.71454C18.189 8.76001 19.4028 7.98694 20.9001 7.98694C22.3975 7.98694 23.6112 8.76001 23.6112 9.71454C23.6112 10.6691 22.3975 11.4421 20.9001 11.4421Z" fill="#F9CF2D"/>
<path d="M20.0889 27.2422C20.0889 25.1624 18.404 22.5047 16.3257 21.3046L3.77347 14.0588C1.69364 12.8588 0.0102539 13.5708 0.0102539 15.6491V28.2013C0.0102539 30.2812 1.69516 32.9389 3.77347 34.1389L16.3257 41.3848C18.4055 42.5848 20.0889 41.8727 20.0889 39.7944V27.2422ZM12.3642 34.2533L10.4857 33.1691C10.3499 33.0914 10.2264 32.948 10.1578 32.7895L8.88461 29.8893C8.78245 29.6575 8.52018 29.5797 8.52018 29.781V31.6428C8.52018 31.8578 8.3494 31.9325 8.13746 31.8105L6.43578 30.827C6.22383 30.7051 6.05305 30.4321 6.05305 30.2171V22.3369C6.05305 22.1219 6.22383 22.0472 6.43578 22.1692L8.13746 23.1527C8.3494 23.2747 8.52018 23.5476 8.52018 23.7626V26.4981C8.52018 26.6841 8.77025 26.8808 8.84344 26.7528L10.1029 24.522C10.1639 24.4152 10.3012 24.4015 10.4552 24.49L12.2681 25.536C12.5441 25.6961 12.7286 26.0895 12.6204 26.2831L10.8669 29.3739C10.8181 29.4608 10.8272 29.598 10.8897 29.7414L12.6966 33.8522C12.8506 34.1999 12.6646 34.4225 12.3688 34.2517H12.3642V34.2533Z" fill="#00F6BB"/>
<path d="M32.3911 30.2903V32.1612C32.3911 32.3762 32.2188 32.6522 32.0069 32.7742L30.2976 33.7622C30.0841 33.8857 29.9133 33.8095 29.9133 33.593V25.6762C29.9133 25.4612 30.0856 25.1852 30.2976 25.0632L32.0069 24.0752C32.2204 23.9516 32.3911 24.0279 32.3911 24.2444V26.9936C32.3911 27.1797 32.6427 27.0882 32.7159 26.8732L33.9815 23.1694C34.0425 22.991 34.1813 22.8187 34.3337 22.7303L36.1544 21.6797C36.4319 21.5196 36.6179 21.701 36.5066 22.0228L34.7454 27.1629C34.6966 27.3077 34.7043 27.4343 34.7683 27.506L36.5843 29.5401C36.7368 29.7124 36.5539 30.1484 36.2535 30.3223L34.3658 31.411C34.23 31.4888 34.105 31.4903 34.0349 31.411L32.754 29.9761C32.6504 29.8603 32.3881 30.0875 32.3881 30.2903H32.3911Z" fill="#F9CF2D"/>
</svg>
